<svg id="svgRoot" xmlns="http://www.w3.org/2000/svg" xmlns:xlink="http://www.w3.org/1999/xlink" width="1606" height="3000" viewBox="0,0,1606,3000" pointer-events="auto"><path d="M 690 15  L 689 14 L 685 14 L 679 17 L 671 21 L 666 23 L 661 26 L 655 30 L 651 33 L 646 36 L 641 41 L 637 45 L 634 50 L 629 56 L 625 61 L 622 66 L 618 74 L 616 80 L 613 86 L 611 95 L 608 102 L 607 110 L 605 120 L 604 127 L 603 134 L 602 144 L 602 151 L 602 158 L 603 165 L 603 170 L 603 174 L 603 178 L 603 179 L 602 179 L 600 177" fill="none" pointer-events="none" stroke-linecap="round" stroke-linejoin="round" stroke="#585858" stroke-width="6" class=""/><path d="M 1051 261  L 1046 261 L 1041 264 L 1035 269 L 1027 278 L 1021 283 L 1015 288 L 1008 294 L 1003 299 L 999 304 L 994 310 L 991 315 L 989 321 L 985 329 L 982 337 L 980 345 L 976 357 L 974 365 L 973 373 L 971 384 L 970 392 L 969 400 L 969 411 L 970 419 L 971 426 L 974 436 L 976 442 L 979 448 L 984 456 L 989 462 L 994 468 L 1000 475 L 1007 480 L 1013 484 L 1022 490 L 1029 495 L 1036 499 L 1043 503 L 1054 507 L 1062 511 L 1071 513 L 1083 516 L 1092 518 L 1104 520 L 1113 521 L 1122 521 L 1135 521 L 1144 521 L 1152 520 L 1164 517 L 1173 514 L 1181 511 L 1190 506 L 1201 499 L 1209 494 L 1218 485 L 1226 477 L 1233 469 L 1241 458 L 1245 450 L 1250 442 L 1255 430 L 1258 419 L 1261 408 L 1264 394 L 1265 382 L 1266 370 L 1265 354 L 1263 340 L 1261 326 L 1255 309 L 1250 301 L 1245 293 L 1239 287 L 1229 279 L 1221 273 L 1211 266 L 1203 262 L 1195 258 L 1186 254 L 1174 250 L 1166 248 L 1156 245 L 1148 244 L 1140 243 L 1132 243 L 1121 243 L 1114 243 L 1107 243 L 1097 244 L 1089 245 L 1082 246 L 1075 248 L 1069 250 L 1064 252 L 1058 255 L 1051 259 L 1047 263 L 1043 267 L 1040 270 L 1038 273 L 1035 276 L 1033 278" fill="none" pointer-events="none" stroke-linecap="round" stroke-linejoin="round" stroke="#585858" stroke-width="6" class=""/><path d="M 1111 407  L 1111 406 L 1110 404 L 1109 401 L 1108 397 L 1106 394 L 1106 394 L 1104 392 L 1101 389 L 1098 389 L 1095 389 L 1093 391 L 1092 392 L 1092 395 L 1093 398 L 1095 401 L 1097 403 L 1098 404 L 1099 404 L 1100 403 L 1100 403 L 1100 402 L 1098 403 L 1095 404 L 1092 406 L 1090 409 L 1087 413 L 1084 418 L 1082 422 L 1082 429 L 1083 433 L 1085 437 L 1088 442 L 1091 443 L 1093 443 L 1094 437" fill="none" pointer-events="none" stroke-linecap="round" stroke-linejoin="round" stroke="#585858" stroke-width="6" class=""/><path d="M 1028 321  L 1027 321 L 1028 322 L 1029 324 L 1029 327 L 1028 332 L 1027 336 L 1026 338 L 1026 340 L 1027 340 L 1028 338 L 1031 333 L 1033 328 L 1034 323 L 1034 318 L 1034 314 L 1033 312 L 1031 310 L 1029 311 L 1028 313 L 1027 318 L 1027 323 L 1027 328 L 1027 331 L 1027 333 L 1029 333 L 1031 332 L 1032 329 L 1034 325 L 1034 320 L 1034 316 L 1034 313 L 1032 310 L 1031 310 L 1029 311 L 1027 315 L 1025 320 L 1024 326 L 1024 332 L 1025 336 L 1026 340 L 1028 342 L 1030 342 L 1032 340 L 1034 334 L 1035 328 L 1035 322 L 1035 316 L 1035 313 L 1034 311 L 1032 311 L 1030 313 L 1028 317 L 1026 323 L 1025 328 L 1025 333 L 1024 338 L 1025 340 L 1026 341 L 1027 340 L 1028 337 L 1029 332 L 1030 325 L 1030 321 L 1030 319 L 1029 317 L 1028 317 L 1028 319 L 1028 323 L 1028 326 L 1029 328 L 1029 328 L 1030 325" fill="none" pointer-events="none" stroke-linecap="round" stroke-linejoin="round" stroke="#585858" stroke-width="6" class=""/><path d="M 1156 319  L 1155 320 L 1154 321 L 1153 321 L 1153 322 L 1152 325 L 1152 328 L 1153 331 L 1154 334 L 1154 335 L 1155 335 L 1157 333 L 1159 330 L 1160 326 L 1161 320 L 1162 316 L 1161 312 L 1160 310 L 1159 310 L 1157 310 L 1156 313 L 1154 316 L 1153 319 L 1152 324 L 1152 328 L 1152 332 L 1153 336 L 1153 337 L 1154 337 L 1156 335 L 1158 331 L 1160 327 L 1161 319 L 1161 314 L 1161 310 L 1161 306 L 1160 305 L 1158 306 L 1156 308 L 1155 312 L 1153 316 L 1152 322 L 1151 326 L 1151 330 L 1151 333 L 1152 334 L 1153 333 L 1155 332 L 1156 329 L 1157 325 L 1157 319 L 1157 314 L 1157 312 L 1156 310 L 1155 310 L 1154 312 L 1152 316 L 1151 321 L 1150 325 L 1150 330 L 1150 332 L 1151 334 L 1152 334 L 1153 333 L 1155 331 L 1156 326 L 1156 321 L 1156 317 L 1156 314 L 1156 313 L 1155 313 L 1154 316 L 1154 320 L 1153 325 L 1154 330 L 1156 333 L 1156 333" fill="none" pointer-events="none" stroke-linecap="round" stroke-linejoin="round" stroke="#585858" stroke-width="6" class=""/><path d="M 761 34  L 761 34 L 761 33 L 763 33 L 767 34 L 769 37 L 771 42 L 772 47 L 774 51 L 776 55 L 781 59 L 785 61 L 788 61 L 792 60 L 796 58 L 801 56 L 808 51 L 813 46 L 816 42 L 819 36" fill="none" pointer-events="none" stroke-linecap="round" stroke-linejoin="round" stroke="#585858" stroke-width="6" class=""/><path d="M 1118 199  L 1118 199 L 1120 203 L 1121 206 L 1123 211 L 1124 216 L 1126 219 L 1127 222 L 1130 224 L 1132 224 L 1134 223 L 1138 220 L 1142 218 L 1146 215 L 1151 212 L 1156 209 L 1160 205 L 1165 199 L 1166 197" fill="none" pointer-events="none" stroke-linecap="round" stroke-linejoin="round" stroke="#585858" stroke-width="6" class=""/><path d="M 1138 218  L 1137 217 L 1136 215 L 1136 213 L 1135 211 L 1135 209 L 1136 207 L 1138 203 L 1139 197 L 1142 186 L 1146 171 L 1151 157 L 1153 149 L 1154 144 L 1155 141 L 1156 139 L 1157 138 L 1158 137 L 1159 136 L 1160 136" fill="none" pointer-events="none" stroke-linecap="round" stroke-linejoin="round" stroke="#585858" stroke-width="6" class=""/><path d="M 1042 75  L 1044 83 L 1045 87 L 1045 90 L 1045 91 L 1045 90" fill="none" pointer-events="none" stroke-linecap="round" stroke-linejoin="round" stroke="#585858" stroke-width="6" class=""/><path d="M 1029 99  L 1029 99 L 1030 103 L 1029 107 L 1030 109 L 1030 108 L 1031 105 L 1031 101 L 1030 97 L 1031 96 L 1032 96 L 1038 94 L 1043 94 L 1049 93 L 1056 93 L 1063 92 L 1066 92 L 1068 93 L 1068 94 L 1066 96 L 1064 98 L 1062 100" fill="none" pointer-events="none" stroke-linecap="round" stroke-linejoin="round" stroke="#585858" stroke-width="6" class=""/><path d="M 1032 108  L 1032 108 L 1035 109 L 1041 109 L 1050 108 L 1058 106 L 1060 104 L 1061 104" fill="none" pointer-events="none" stroke-linecap="round" stroke-linejoin="round" stroke="#585858" stroke-width="6" class=""/><path d="M 1044 117  L 1047 117 L 1054 116 L 1060 115 L 1061 114" fill="none" pointer-events="none" stroke-linecap="round" stroke-linejoin="round" stroke="#585858" stroke-width="6" class=""/><path d="M 1029 133  L 1029 133 L 1033 132 L 1041 130 L 1048 129" fill="none" pointer-events="none" stroke-linecap="round" stroke-linejoin="round" stroke="#585858" stroke-width="6" class=""/><path d="M 1056 104  L 1056 104 L 1057 107 L 1056 112 L 1054 119 L 1048 128 L 1041 134 L 1036 140 L 1032 143 L 1033 143 L 1034 142" fill="none" pointer-events="none" stroke-linecap="round" stroke-linejoin="round" stroke="#585858" stroke-width="6" class=""/><path d="M 1043 133  L 1045 134 L 1049 136 L 1053 139 L 1058 143 L 1063 146 L 1066 146 L 1066 144" fill="none" pointer-events="none" stroke-linecap="round" stroke-linejoin="round" stroke="#585858" stroke-width="6" class=""/><path d="M 1102 93  L 1102 95 L 1101 99 L 1100 107 L 1100 117 L 1100 122 L 1100 123" fill="none" pointer-events="none" stroke-linecap="round" stroke-linejoin="round" stroke="#585858" stroke-width="6" class=""/><path d="M 1118 100  L 1121 100 L 1127 100 L 1132 100 L 1136 99 L 1137 97 L 1137 95 L 1134 90 L 1130 86 L 1126 83 L 1124 80" fill="none" pointer-events="none" stroke-linecap="round" stroke-linejoin="round" stroke="#585858" stroke-width="6" class=""/><path d="M 1125 85  L 1126 87 L 1128 92 L 1129 97 L 1128 105 L 1126 111 L 1124 116 L 1121 120 L 1120 122 L 1118 124 L 1115 123 L 1114 120 L 1116 117 L 1122 114 L 1128 113 L 1136 113 L 1146 114" fill="none" pointer-events="none" stroke-linecap="round" stroke-linejoin="round" stroke="#585858" stroke-width="6" class=""/><path d="M 1184 74  L 1184 74 L 1186 76 L 1187 79 L 1187 83 L 1187 88 L 1187 91 L 1187 92" fill="none" pointer-events="none" stroke-linecap="round" stroke-linejoin="round" stroke="#585858" stroke-width="6" class=""/><path d="M 1215 76  L 1216 77 L 1220 84 L 1222 91 L 1222 99 L 1219 109 L 1216 114 L 1210 119 L 1208 121" fill="none" pointer-events="none" stroke-linecap="round" stroke-linejoin="round" stroke="#585858" stroke-width="6" class=""/><path d="M 1246 85  L 1247 85 L 1249 85 L 1258 84 L 1260 84" fill="none" pointer-events="none" stroke-linecap="round" stroke-linejoin="round" stroke="#585858" stroke-width="6" class=""/><path d="M 1269 106  L 1272 105 L 1275 102 L 1281 96 L 1284 88 L 1286 79 L 1288 71 L 1288 65" fill="none" pointer-events="none" stroke-linecap="round" stroke-linejoin="round" stroke="#585858" stroke-width="6" class=""/><path d="M 1310 61  L 1310 61 L 1310 64 L 1310 67" fill="none" pointer-events="none" stroke-linecap="round" stroke-linejoin="round" stroke="#585858" stroke-width="6" class=""/><path d="M 1306 75  L 1305 74 L 1304 72 L 1303 69" fill="none" pointer-events="none" stroke-linecap="round" stroke-linejoin="round" stroke="#585858" stroke-width="6" class=""/><path d="M 1305 62  L 1307 61 L 1310 61 L 1313 62 L 1318 63 L 1322 63 L 1327 63 L 1333 62 L 1337 61 L 1339 61 L 1342 60 L 1344 60 L 1344 61 L 1343 64 L 1342 68 L 1340 76 L 1336 89 L 1334 99 L 1332 106 L 1331 112 L 1330 114" fill="none" pointer-events="none" stroke-linecap="round" stroke-linejoin="round" stroke="#585858" stroke-width="6" class=""/><path d="M 1315 67  L 1315 66 L 1316 65 L 1317 64 L 1317 63 L 1317 61 L 1316 60 L 1315 60 L 1313 60 L 1312 62 L 1312 62 L 1312 63 L 1311 64 L 1310 66 L 1308 71 L 1306 75 L 1306 80 L 1305 82 L 1305 85 L 1305 89" fill="none" pointer-events="none" stroke-linecap="round" stroke-linejoin="round" stroke="#585858" stroke-width="6" class=""/><path d="M 746 22  L 745 22 L 742 23 L 735 23 L 730 21 L 724 18 L 714 13 L 706 9 L 698 7 L 689 5 L 684 4 L 681 4 L 678 5 L 678 6 L 678 11 L 680 18 L 682 28 L 686 40 L 690 52 L 695 64 L 698 73 L 701 78 L 704 82 L 708 85 L 711 85 L 715 85 L 720 82 L 728 76 L 734 71 L 738 66 L 742 61 L 743 59" fill="none" pointer-events="none" stroke-linecap="round" stroke-linejoin="round" stroke="#585858" stroke-width="6" class=""/><path d="M 1124 541  L 1122 540 L 1119 538 L 1116 536 L 1111 533 L 1109 533 L 1103 531 L 1095 529 L 1084 526 L 1076 524 L 1070 522 L 1063 519 L 1059 519 L 1053 519 L 1051 519 L 1049 520 L 1048 521 L 1048 524 L 1048 531 L 1049 540 L 1051 551 L 1054 568 L 1055 578 L 1056 586 L 1058 592 L 1060 594 L 1063 595 L 1068 596 L 1073 596 L 1080 594 L 1090 591 L 1097 587 L 1101 583 L 1107 576" fill="none" pointer-events="none" stroke-linecap="round" stroke-linejoin="round" stroke="#585858" stroke-width="6" class=""/><path d="M 1132 532  L 1129 533 L 1122 539 L 1119 544 L 1118 551 L 1120 559 L 1124 563 L 1129 565 L 1132 563" fill="none" pointer-events="none" stroke-linecap="round" stroke-linejoin="round" stroke="#585858" stroke-width="6" class=""/><path d="M 1143 534  L 1144 532 L 1146 528 L 1151 525 L 1157 520 L 1162 517 L 1168 514 L 1174 510 L 1180 508 L 1187 505 L 1192 504 L 1197 503 L 1202 502 L 1207 502 L 1210 503 L 1211 503 L 1213 504 L 1214 504 L 1215 506 L 1217 509 L 1219 516 L 1220 527 L 1224 546 L 1228 557 L 1230 566 L 1232 576 L 1233 581 L 1233 584 L 1233 588 L 1231 588 L 1228 588 L 1223 585 L 1219 583 L 1214 582 L 1205 580 L 1195 579 L 1187 578 L 1179 576 L 1175 575 L 1171 573 L 1165 570" fill="none" pointer-events="none" stroke-linecap="round" stroke-linejoin="round" stroke="#585858" stroke-width="6" class=""/><path d="M 1034 507  L 1032 508 L 1030 509 L 1029 509 L 1028 509 L 1028 509 L 1028 508 L 1028 508 L 1028 507 L 1029 507 L 1029 506 L 1029 506 L 1028 507 L 1026 508 L 1023 509 L 1017 512 L 1012 514 L 1005 516 L 995 519 L 986 523 L 973 528 L 964 532 L 957 535 L 950 538 L 945 540 L 943 541" fill="none" pointer-events="none" stroke-linecap="round" stroke-linejoin="round" stroke="#585858" stroke-width="6" class=""/><path d="M 285 426  L 289 426 L 294 427 L 300 428 L 302 428 L 304 428 L 306 429 L 307 429 L 307 429 L 308 429 L 308 430 L 307 432 L 307 434 L 307 436 L 307 437 L 307 438 L 307 439 L 307 440 L 307 441 L 307 442 L 307 443 L 308 445 L 307 445 L 306 447 L 301 454 L 295 464 L 288 474 L 285 481" fill="none" pointer-events="none" stroke-linecap="round" stroke-linejoin="round" stroke="#585858" stroke-width="6" class=""/><path d="M 306 439  L 305 439 L 301 441 L 298 443 L 293 445 L 288 447 L 282 449 L 272 453 L 264 456 L 255 460 L 241 468 L 231 475 L 221 483 L 209 493 L 201 503 L 194 514 L 187 530 L 183 542 L 180 551 L 179 562 L 179 570 L 181 578 L 185 587 L 193 598 L 199 604 L 209 605" fill="none" pointer-events="none" stroke-linecap="round" stroke-linejoin="round" stroke="#585858" stroke-width="6" class=""/><path d="M 1160 548  L 1161 548 L 1163 551 L 1165 556 L 1166 561 L 1166 562 L 1166 566 L 1166 567 L 1166 566 L 1165 565" fill="none" pointer-events="none" stroke-linecap="round" stroke-linejoin="round" stroke="#585858" stroke-width="6" class=""/><path d="M 1225 496  L 1234 496 L 1243 496 L 1246 497 L 1254 498 L 1270 501 L 1281 504 L 1289 507 L 1297 510 L 1303 512 L 1307 513 L 1312 514 L 1313 514 L 1313 514" fill="none" pointer-events="none" stroke-linecap="round" stroke-linejoin="round" stroke="#585858" stroke-width="6" class=""/></svg>