<?xml version="1.0" encoding="UTF-8" standalone="no"?>
<!DOCTYPE svg PUBLIC "-//W3C//DTD SVG 1.1//EN" "http://www.w3.org/Graphics/SVG/1.1/DTD/svg11.dtd">
<svg width="100%" height="100%" viewBox="0 0 800 803" version="1.1" xmlns="http://www.w3.org/2000/svg" xmlns:xlink="http://www.w3.org/1999/xlink" xml:space="preserve" xmlns:serif="http://www.serif.com/" style="fill-rule:evenodd;clip-rule:evenodd;stroke-linejoin:round;stroke-miterlimit:2;">
    <g transform="matrix(1,0,0,1,-1491,-105)">
        <g transform="matrix(1,0,0,1,-119.147,-191.99)">
            <circle cx="2007.44" cy="704.839" r="380.558" style="fill:rgb(103,150,148);"/>
        </g>
        <g transform="matrix(0.371484,0.356274,-0.353269,0.338804,1690.97,-15.4211)">
            <path d="M707.107,448.886C707.107,435.297 694.321,424.264 678.573,424.264L621.505,424.264C605.757,424.264 592.971,435.297 592.971,448.886L592.971,892.687C592.971,906.276 605.757,917.309 621.505,917.309L678.573,917.309C694.321,917.309 707.107,906.276 707.107,892.687L707.107,448.886Z" style="fill:white;"/>
        </g>
        <g transform="matrix(-0.371484,0.356274,-0.353269,-0.338804,2173.92,565.491)">
            <path d="M707.107,448.886C707.107,435.297 694.321,424.264 678.573,424.264L621.505,424.264C605.757,424.264 592.971,435.297 592.971,448.886L592.971,892.687C592.971,906.276 605.757,917.309 621.505,917.309L678.573,917.309C694.321,917.309 707.107,906.276 707.107,892.687L707.107,448.886Z" style="fill:white;"/>
        </g>
        <g transform="matrix(0.371484,0.356274,-0.353269,0.338804,2084.34,115.745)">
            <path d="M707.107,454.295C707.107,437.721 694.321,424.264 678.573,424.264L621.505,424.264C605.757,424.264 592.971,437.721 592.971,454.295L592.971,887.277C592.971,903.852 605.757,917.309 621.505,917.309L678.573,917.309C694.321,917.309 707.107,903.852 707.107,887.277L707.107,454.295Z" style="fill:white;"/>
        </g>
        <g transform="matrix(0.564363,0.182361,-0.1736,0.494156,1639.89,21.4561)">
            <path d="M707.107,456.585C707.107,438.747 694.321,424.264 678.573,424.264L621.505,424.264C605.757,424.264 592.971,438.747 592.971,456.585L592.971,884.987C592.971,902.826 605.757,917.309 621.505,917.309L678.573,917.309C694.321,917.309 707.107,902.826 707.107,884.987L707.107,456.585Z" style="fill:rgb(255,141,60);"/>
        </g>
        <g transform="matrix(-0.473786,-0.154799,0.16188,-0.455716,2143.29,1309.44)">
            <path d="M1018.22,1042.85C1018.22,1042.85 957.98,1093.03 957.98,1132.43C957.98,1166.71 984.974,1194.54 1018.22,1194.54C1051.47,1194.54 1078.47,1166.71 1078.47,1132.43C1078.47,1093.03 1018.22,1042.85 1018.22,1042.85Z" style="fill:rgb(255,141,60);"/>
        </g>
        <g transform="matrix(0.371484,-0.356274,0.353269,0.338804,1602.8,445.252)">
            <path d="M707.107,448.886C707.107,435.297 694.321,424.264 678.573,424.264L621.505,424.264C605.757,424.264 592.971,435.297 592.971,448.886L592.971,892.687C592.971,906.276 605.757,917.309 621.505,917.309L678.573,917.309C694.321,917.309 707.107,906.276 707.107,892.687L707.107,448.886Z" style="fill:white;"/>
        </g>
    </g>
</svg>
